<?xml version="1.0" encoding="UTF-8"?>
<svg width="18px" height="16px" viewBox="0 0 18 16" version="1.1" xmlns="http://www.w3.org/2000/svg" xmlns:xlink="http://www.w3.org/1999/xlink">
    <title>形状结合</title>
    <g id="页面-1" stroke="none" stroke-width="1" fill="none" fill-rule="evenodd">
        <g id="桌面端-HD" transform="translate(-766.000000, -331.000000)" fill="#999999">
            <path d="M775.304539,331.136382 C779.963025,331.136382 783.739474,334.407958 783.739474,338.443652 C783.739474,342.479346 779.963025,345.750922 775.304539,345.750922 C773.758725,345.750922 772.310032,345.39069 771.064214,344.761843 L766.83084,346.136382 L767.818299,341.813775 C767.212198,340.805396 766.869603,339.659184 766.869603,338.443652 C766.869603,334.407958 770.646053,331.136382 775.304539,331.136382 Z M771.154731,337.27088 C770.507027,337.27088 769.981959,337.795948 769.981959,338.443652 C769.981959,339.091356 770.507027,339.616424 771.154731,339.616424 C771.802435,339.616424 772.327503,339.091356 772.327503,338.443652 C772.327503,337.795948 771.802435,337.27088 771.154731,337.27088 Z M775.304539,337.27088 C774.656835,337.27088 774.131767,337.795948 774.131767,338.443652 C774.131767,339.091356 774.656835,339.616424 775.304539,339.616424 C775.952243,339.616424 776.47731,339.091356 776.47731,338.443652 C776.47731,337.795948 775.952243,337.27088 775.304539,337.27088 Z M779.454346,337.27088 C778.806642,337.27088 778.281575,337.795948 778.281575,338.443652 C778.281575,339.091356 778.806642,339.616424 779.454346,339.616424 C780.10205,339.616424 780.627118,339.091356 780.627118,338.443652 C780.627118,337.795948 780.10205,337.27088 779.454346,337.27088 Z" id="形状结合"></path>
        </g>
    </g>
</svg>