<?xml version="1.0" encoding="UTF-8"?>
<svg width="24px" height="24px" viewBox="0 0 24 24" version="1.1" xmlns="http://www.w3.org/2000/svg" xmlns:xlink="http://www.w3.org/1999/xlink">
    <title>形状结合</title>
    <g id="页面-1" stroke="none" stroke-width="1" fill="none" fill-rule="evenodd">
        <g id="博客主页" transform="translate(-1139.000000, -18.000000)" fill="#000000" fill-rule="nonzero">
            <path d="M1151,18.0832089 C1154.16491,18.0688484 1157.20439,19.3196987 1159.44235,21.5576549 C1161.6803,23.7956111 1162.93115,26.8350852 1162.91679,30 C1162.91679,36.5813933 1157.58139,41.9166667 1151,41.9166667 C1144.41861,41.9166667 1139.08333,36.5813933 1139.08333,30 C1139.08333,23.4186067 1144.41861,18.0832089 1151,18.0832089 Z M1151,20.25 C1145.62753,20.279601 1141.2796,24.6275326 1141.25,30 C1141.2796,35.3724674 1145.62753,39.720399 1151,39.75 L1151,39.75 L1151,35.4166667 C1153.99154,35.4166667 1156.41667,32.9915424 1156.41667,30 C1156.41667,27.0084576 1153.99154,24.5833333 1151,24.5833333 L1151,24.5833333 Z M1151,24.5833333 L1151,35.4166667 C1148.00846,35.4166667 1145.58333,32.9915424 1145.58333,30 C1145.58333,27.0084576 1148.00846,24.5833333 1151,24.5833333 L1151,24.5833333 Z" id="形状结合"></path>
        </g>
    </g>
</svg>